<svg width="35" height="35" viewBox="0 0 35 35" fill="none" xmlns="http://www.w3.org/2000/svg">
<path d="M16.8407 6.71997C12.3516 6.71997 8.13617 7.05997 5.89164 7.53544C4.39617 7.87544 3.10258 8.89544 2.83164 10.46C2.5607 12.0909 2.28711 14.54 2.28711 17.6C2.28711 20.66 2.55805 23.04 2.89805 24.74C3.17164 26.2354 4.46258 27.3245 5.95805 27.6645C8.3407 28.14 12.418 28.48 16.9071 28.48C21.3962 28.48 25.4735 28.14 27.8535 27.6645C29.3516 27.3245 30.6426 26.3045 30.9135 24.74C31.1871 23.04 31.5271 20.5936 31.5935 17.5336C31.5935 14.4736 31.2535 12.0245 30.9135 10.3245C30.6426 8.82903 29.3516 7.73997 27.8535 7.39997C25.4735 7.05997 21.3271 6.71997 16.8407 6.71997ZM16.8407 8.07997C21.7362 8.07997 25.678 8.48638 27.5826 8.82638C28.6026 9.09997 29.418 9.77997 29.5535 10.6645C29.9626 12.84 30.2335 15.1536 30.2335 17.5336C30.1671 20.4554 29.8271 22.8354 29.5535 24.5354C29.3516 25.8264 27.9916 26.2354 27.5826 26.3736C25.1335 26.849 21.0535 27.1864 16.9735 27.1864C12.8935 27.1864 8.74711 26.9154 6.36711 26.3736C5.34711 26.1 4.53164 25.42 4.39617 24.5354C3.85164 22.6309 3.64711 20.1154 3.64711 17.6C3.64711 14.4709 3.9207 12.16 4.19164 10.7336C4.39617 9.43997 5.82258 9.03091 6.16258 8.89544C8.40711 8.41997 12.5562 8.07997 16.8407 8.07997ZM13.1671 12.16V23.04L22.6871 17.6L13.1671 12.16ZM14.5271 14.4736L19.9671 17.6L14.5271 20.7264V14.4736Z" fill="white"/>
</svg>
