<svg width="31" height="31" viewBox="0 0 31 31" fill="none" xmlns="http://www.w3.org/2000/svg">
<g clip-path="url(#clip0_5_478)">
<path d="M20.7783 3.88123C17.19 3.88123 14.272 6.79919 14.272 10.3875C14.272 10.6031 14.3259 10.814 14.347 11.025C9.91031 10.6008 5.98687 8.46326 3.32202 5.19373C3.1978 5.03669 3.00562 4.95232 2.80405 4.96638C2.60484 4.98044 2.42671 5.09529 2.32827 5.26873C1.76812 6.23201 1.44702 7.3406 1.44702 8.53123C1.44702 9.97263 1.96265 11.2922 2.75952 12.375C2.60484 12.307 2.43609 12.2695 2.29077 12.1875C2.10562 12.089 1.88296 12.0937 1.70249 12.2015C1.52202 12.3094 1.41187 12.5039 1.40952 12.7125V12.7875C1.40952 14.9976 2.55327 16.9172 4.24077 18.0937C4.22202 18.0914 4.20327 18.0984 4.18452 18.0937C3.97827 18.0586 3.76968 18.1312 3.6314 18.2883C3.49312 18.4453 3.44859 18.6633 3.50952 18.8625C4.17984 20.9461 5.89077 22.5375 8.00952 23.1187C6.32202 24.1218 4.36499 24.7125 2.25327 24.7125C1.79624 24.7125 1.35796 24.689 0.922023 24.6375C0.640773 24.6 0.371241 24.764 0.277492 25.0312C0.181398 25.2984 0.286867 25.5961 0.528273 25.7437C3.2353 27.4804 6.44859 28.5 9.90327 28.5C15.5025 28.5 19.8947 26.1609 22.8408 22.8187C25.7869 19.4765 27.322 15.1359 27.322 11.0812C27.322 10.9101 27.308 10.7437 27.3033 10.575C28.4025 9.73357 29.3845 8.74685 30.1533 7.59373C30.3056 7.37107 30.2892 7.07341 30.1134 6.86716C29.94 6.66091 29.647 6.59763 29.4033 6.71248C29.0939 6.85076 28.733 6.86482 28.4095 6.97498C28.8361 6.40544 29.2017 5.79138 29.422 5.09998C29.497 4.86326 29.415 4.6031 29.2205 4.44841C29.0259 4.29607 28.7541 4.27732 28.5408 4.40623C27.5166 5.01326 26.3822 5.43982 25.1845 5.69998C24.022 4.61248 22.4916 3.88123 20.7783 3.88123ZM20.7783 5.08123C22.3087 5.08123 23.6916 5.73513 24.6595 6.76873C24.8048 6.91873 25.0181 6.98201 25.222 6.93748C26.0048 6.78279 26.7478 6.55544 27.472 6.26248C27.0548 6.82498 26.5392 7.30544 25.9345 7.66873C25.6603 7.80232 25.5314 8.11873 25.6322 8.40701C25.7306 8.69294 26.0306 8.85935 26.3283 8.79373C26.9283 8.72107 27.4627 8.47732 28.0345 8.32498C27.5212 8.88044 26.9587 9.38201 26.347 9.82498C26.1806 9.94685 26.0892 10.1437 26.1033 10.35C26.1126 10.5937 26.122 10.8351 26.122 11.0812C26.122 14.8312 24.683 18.9023 21.9408 22.0125C19.1986 25.1226 15.172 27.3 9.90327 27.3C7.5103 27.3 5.25093 26.7703 3.20952 25.8375C5.74077 25.6429 8.07515 24.7476 9.95952 23.2687C10.1564 23.1117 10.2337 22.8492 10.1541 22.6101C10.0744 22.3711 9.85405 22.207 9.60327 22.2C7.62515 22.1648 5.96812 21.014 5.08452 19.3875C5.11734 19.3875 5.14546 19.3875 5.17827 19.3875C5.77124 19.3875 6.35718 19.3125 6.90327 19.1625C7.16577 19.0851 7.34624 18.8414 7.33687 18.5672C7.32749 18.2929 7.13296 18.0586 6.86577 18C4.73062 17.5687 3.12984 15.8297 2.75952 13.6687C3.36421 13.8773 3.98296 14.0414 4.65327 14.0625C4.92749 14.0789 5.17593 13.9078 5.2603 13.6476C5.34468 13.3875 5.24155 13.1015 5.00952 12.9562C3.58452 12.0023 2.64702 10.3781 2.64702 8.53123C2.64702 7.84685 2.82515 7.21873 3.05952 6.61873C6.05952 9.91169 10.2595 12.0984 15.0033 12.3375C15.1908 12.3469 15.3736 12.2695 15.4955 12.1265C15.6173 11.9812 15.6642 11.789 15.622 11.6062C15.5306 11.2172 15.472 10.8047 15.472 10.3875C15.472 7.44841 17.8392 5.08123 20.7783 5.08123Z" fill="white"/>
</g>
<defs>
<clipPath id="clip0_5_478">
<rect width="30" height="30" fill="white" transform="translate(0.24707 0.599976)"/>
</clipPath>
</defs>
</svg>
