<svg width="29" height="29" viewBox="0 0 29 29" fill="none" xmlns="http://www.w3.org/2000/svg">
<path fill-rule="evenodd" clip-rule="evenodd" d="M15.1114 22.4436L18.2022 19.3528C18.5449 19.0102 19.0839 18.9625 19.4814 19.2397L23.9016 22.3226C24.4122 22.6787 24.4768 23.4098 24.0367 23.8499L23.2558 24.6308C22.5455 25.3411 21.5286 25.6487 20.5693 25.3511C18.2257 24.624 13.6534 22.8271 9.88586 19.0596C6.11837 15.2921 4.32144 10.7197 3.59437 8.37617C3.29674 7.41682 3.60437 6.3999 4.31463 5.68964L5.0955 4.90877C5.53567 4.4686 6.26672 4.53324 6.62282 5.04382L9.7057 9.46406C9.98292 9.86153 9.93525 10.4006 9.59259 10.7432L6.50181 13.834" fill="white"/>
</svg>
