<svg width="31" height="31" viewBox="0 0 31 31" fill="none" xmlns="http://www.w3.org/2000/svg">
<path d="M9.84712 2.40002C5.54661 2.40002 2.04712 5.89951 2.04712 10.2V21C2.04712 25.3005 5.54661 28.8 9.84712 28.8H20.6471C24.9476 28.8 28.4471 25.3005 28.4471 21V10.2C28.4471 5.89951 24.9476 2.40002 20.6471 2.40002H9.84712ZM9.84712 3.60002H20.6471C24.299 3.60002 27.2471 6.54813 27.2471 10.2V21C27.2471 24.6519 24.299 27.6 20.6471 27.6H9.84712C6.19523 27.6 3.24712 24.6519 3.24712 21V10.2C3.24712 6.54813 6.19523 3.60002 9.84712 3.60002ZM22.4471 7.20002C22.1289 7.20002 21.8236 7.32645 21.5986 7.5515C21.3735 7.77654 21.2471 8.08176 21.2471 8.40002C21.2471 8.71828 21.3735 9.02351 21.5986 9.24855C21.8236 9.4736 22.1289 9.60002 22.4471 9.60002C22.7654 9.60002 23.0706 9.4736 23.2956 9.24855C23.5207 9.02351 23.6471 8.71828 23.6471 8.40002C23.6471 8.08176 23.5207 7.77654 23.2956 7.5515C23.0706 7.32645 22.7654 7.20002 22.4471 7.20002ZM15.2471 9.00002C11.6091 9.00002 8.64712 11.9621 8.64712 15.6C8.64712 19.238 11.6091 22.2 15.2471 22.2C18.8851 22.2 21.8471 19.238 21.8471 15.6C21.8471 11.9621 18.8851 9.00002 15.2471 9.00002ZM15.2471 10.2C18.2366 10.2 20.6471 12.6106 20.6471 15.6C20.6471 18.5895 18.2366 21 15.2471 21C12.2577 21 9.84712 18.5895 9.84712 15.6C9.84712 12.6106 12.2577 10.2 15.2471 10.2Z" fill="white"/>
</svg>
