<svg width="29" height="29" viewBox="0 0 29 29" fill="none" xmlns="http://www.w3.org/2000/svg">
<path fill-rule="evenodd" clip-rule="evenodd" d="M15.1114 21.5436L18.2022 18.4528C18.5449 18.1102 19.0839 18.0625 19.4814 18.3397L23.9016 21.4226C24.4122 21.7787 24.4768 22.5097 24.0367 22.9499L23.2558 23.7308C22.5455 24.441 21.5286 24.7487 20.5693 24.451C18.2257 23.724 13.6534 21.927 9.88586 18.1595C6.11837 14.3921 4.32144 9.81966 3.59437 7.47614C3.29674 6.51679 3.60437 5.49988 4.31463 4.78962L5.0955 4.00875C5.53567 3.56857 6.26672 3.63322 6.62282 4.1438L9.7057 8.56404C9.98292 8.96151 9.93525 9.50054 9.59259 9.8432L6.50181 12.934" fill="white"/>
</svg>
