<svg width="34" height="34" viewBox="0 0 34 34" fill="none" xmlns="http://www.w3.org/2000/svg">
<path d="M16.5936 6.12C12.1046 6.12 7.8891 6.45999 5.64457 6.93546C4.1491 7.27546 2.85551 8.29546 2.58457 9.86C2.31363 11.4909 2.04004 13.94 2.04004 17C2.04004 20.06 2.31098 22.44 2.65098 24.14C2.92457 25.6355 4.21551 26.7245 5.71098 27.0645C8.09363 27.54 12.171 27.88 16.66 27.88C21.1491 27.88 25.2264 27.54 27.6064 27.0645C29.1046 26.7245 30.3955 25.7045 30.6664 24.14C30.94 22.44 31.28 19.9936 31.3464 16.9336C31.3464 13.8736 31.0064 11.4245 30.6664 9.72453C30.3955 8.22906 29.1046 7.14 27.6064 6.8C25.2264 6.46 21.08 6.12 16.5936 6.12ZM16.5936 7.48C21.4891 7.48 25.431 7.8864 27.3355 8.2264C28.3555 8.5 29.171 9.18 29.3064 10.0645C29.7155 12.24 29.9864 14.5536 29.9864 16.9336C29.92 19.8555 29.58 22.2355 29.3064 23.9355C29.1046 25.2264 27.7446 25.6355 27.3355 25.7736C24.8864 26.2491 20.8064 26.5864 16.7264 26.5864C12.6464 26.5864 8.50004 26.3155 6.12004 25.7736C5.10004 25.5 4.28457 24.82 4.1491 23.9355C3.60457 22.0309 3.40004 19.5155 3.40004 17C3.40004 13.8709 3.67363 11.56 3.94457 10.1336C4.1491 8.83999 5.57551 8.43093 5.91551 8.29546C8.16004 7.81999 12.3091 7.48 16.5936 7.48ZM12.92 11.56V22.44L22.44 17L12.92 11.56ZM14.28 13.8736L19.72 17L14.28 20.1264V13.8736Z" fill="white"/>
</svg>
